<svg xmlns="http://www.w3.org/2000/svg" width="20.002" height="16.012" viewBox="1496.999 137.999 20.002 16.012"><path d="M1496.999 152.988a1.028 1.028 0 0 0 1.029 1.024h17.904a1.071 1.071 0 0 0 .661-.224 1.073 1.073 0 0 0 .408-.761v-14.002a1.042 1.042 0 0 0 0-.008 1.005 1.005 0 0 0-.296-.714 1.02 1.02 0 0 0-.729-.304h-17.948c-.568 0-1.03.46-1.03 1.024v13.965Zm16.732-.988-4.45-5.466-1.628 1.486a1.18 1.18 0 0 1-.35.181 1.065 1.065 0 0 1-.32.049 1.169 1.169 0 0 1-.3-.04.874.874 0 0 1-.378-.195l-1.598-1.457-4.43 5.442h13.454Zm-6.747-6.074 6.415-5.878h-12.83l6.415 5.878Zm-7.967 4.396 4.183-5.135-4.183-3.819v8.954Zm15.93-.053v-8.901l-4.16 3.795 4.16 5.106Z" fill="rgba(8, 66, 183, 1)" fill-rule="evenodd" data-name="shape"/></svg>