<svg xmlns="http://www.w3.org/2000/svg" width="9" height="17.001" viewBox="1284 202.998 9 17.001"><path d="M1284 210.759h1.611v9.24h3.578v-9.24h2.528l.686-2.985h-3.362s-.262-1.24.236-1.704a1.313 1.313 0 0 1 .316-.212c.24-.118.55-.197.914-.207a2.848 2.848 0 0 1 .079-.001 2.034 2.034 0 0 1 .823.188c.157.068.313.15.475.24a101.844 101.844 0 0 1 .392.22l.724-2.627a12.622 12.622 0 0 1-.26-.073c-.797-.234-1.404-.488-2.187-.571a5.102 5.102 0 0 0-.543-.029 8.615 8.615 0 0 0-.66.024 4.893 4.893 0 0 0-1.532.35 6.791 6.791 0 0 0-.338.148 2.293 2.293 0 0 0-.552.362 3.06 3.06 0 0 0-.634.829 8.735 8.735 0 0 0-.17.324 3.363 3.363 0 0 0-.265.747c-.1.42-.148.93-.148 1.602v.39h-1.662l-.05 2.985Z" fill="rgba(8, 66, 183, 1)" fill-rule="evenodd" data-name="shape"/></svg>