<svg xmlns="http://www.w3.org/2000/svg" width="14.996" height="14.997" viewBox="1449.991 204 14.996 14.997"><path d="M1462.09 204h-9.2a2.901 2.901 0 0 0-2.899 2.9v9.197a2.903 2.903 0 0 0 2.898 2.9h9.2a2.903 2.903 0 0 0 2.899-2.9V206.9a2.902 2.902 0 0 0-2.899-2.9Zm0 13.536a1.44 1.44 0 0 0 1.436-1.439v-6.137h-2.239a4.2 4.2 0 0 1 .035.09 4.077 4.077 0 0 1 .268 1.45 4.106 4.106 0 0 1-4.1 4.1 4.106 4.106 0 0 1-4.101-4.1 4.084 4.084 0 0 1 0-.053 4.086 4.086 0 0 1 .302-1.487h-2.239v6.137a1.44 1.44 0 0 0 1.437 1.439h9.2Zm-4.734-8.673a2.64 2.64 0 0 0-2.007 1.097c-.312.433-.5.964-.5 1.54a2.641 2.641 0 0 0 2.64 2.637 2.642 2.642 0 0 0 2.64-2.638c0-.575-.187-1.106-.5-1.54a2.68 2.68 0 0 0-.42-.458 2.624 2.624 0 0 0-1.72-.64 2.66 2.66 0 0 0-.133.002Zm5.565-3.134.33-.001v2.541l-2.532.01-.009-2.544 2.21-.006Z" fill="rgba(8, 66, 183, 1)" fill-rule="evenodd" data-name="shape"/></svg>