<svg xmlns="http://www.w3.org/2000/svg" width="9.999" height="13" viewBox="1509 205 9.999 13"><path d="M1518.703 211.07a.889.889 0 0 0 .296-.663.862.862 0 0 0-.055-.305.975.975 0 0 0-.173-.288l-4.08-4.506a.915.915 0 0 0-.69-.308.927.927 0 0 0-.684.3l-4.089 4.516a.89.89 0 0 0-.228.593.884.884 0 0 0 .307.668.922.922 0 0 0 .607.227.958.958 0 0 0 .059-.002.914.914 0 0 0 .624-.3l2.492-2.751v8.855c0 .493.41.893.912.893a.903.903 0 0 0 .911-.893v-8.855l2.491 2.748a.907.907 0 0 0 .625.303.931.931 0 0 0 .675-.232Z" fill="rgba(8, 66, 183, 1)" fill-rule="evenodd" data-name="shape"/></svg>