<svg xmlns="http://www.w3.org/2000/svg" width="11.003" height="14.004" viewBox="1338.989 203.988 11.003 14.004"><path d="M1349.225 211.432a3.535 3.535 0 0 0-1.427-.94 4.593 4.593 0 0 0-.615-.175v-.075a2.97 2.97 0 0 0 1.39-1.176 3.283 3.283 0 0 0 .496-1.57 4.012 4.012 0 0 0 .008-.253 3.643 3.643 0 0 0-.09-.833 2.954 2.954 0 0 0-.275-.729 2.602 2.602 0 0 0-.903-.962 3.176 3.176 0 0 0-.2-.119 4.308 4.308 0 0 0-1.465-.494 7.656 7.656 0 0 0-.497-.057c-.363-.031-.799-.05-1.31-.057a35.14 35.14 0 0 0-.489-.004h-4.86v14.004h5.507a12.914 12.914 0 0 0 .925-.031c.55-.04 1.03-.117 1.435-.233a4.781 4.781 0 0 0 1.705-.883 3.73 3.73 0 0 0 1.032-1.284 4.336 4.336 0 0 0 .012-.025 3.719 3.719 0 0 0 .332-1.078 4.92 4.92 0 0 0 .056-.755 4.308 4.308 0 0 0-.1-.951 2.899 2.899 0 0 0-.55-1.181 2.677 2.677 0 0 0-.117-.139Zm-3.501 3.62a1.327 1.327 0 0 0 .494-.507 1.754 1.754 0 0 0 .15-.374 2.025 2.025 0 0 0 .067-.533 2.833 2.833 0 0 0-.012-.261 1.975 1.975 0 0 0-.07-.38 1.284 1.284 0 0 0-.177-.375c-.172-.245-.431-.43-.776-.555a2.11 2.11 0 0 0-.543-.117 4.229 4.229 0 0 0-.32-.02 37.695 37.695 0 0 0-.279-.006c-.219-.003-.471-.006-.757-.008a88.476 88.476 0 0 0-.438 0h-.638v3.509h.185a155.97 155.97 0 0 0 .453 0c.465-.002.836-.006 1.114-.011a19.04 19.04 0 0 0 .3-.008 2.573 2.573 0 0 0 .423-.051 3.19 3.19 0 0 0 .63-.203 1.761 1.761 0 0 0 .194-.1Zm-.642-5.897a1.015 1.015 0 0 0 .328-.4 1.706 1.706 0 0 0 .122-.4 2.294 2.294 0 0 0 .034-.408 1.44 1.44 0 0 0-.042-.342 1.83 1.83 0 0 0-.128-.354 1.041 1.041 0 0 0-.532-.517 1.63 1.63 0 0 0-.036-.016 1.918 1.918 0 0 0-.388-.11 2.668 2.668 0 0 0-.384-.039 23.057 23.057 0 0 0-.244-.005 63.91 63.91 0 0 0-1.147-.009h-.24v2.963h.435a83.553 83.553 0 0 0 .137 0c.518 0 .887-.006 1.105-.018a1.794 1.794 0 0 0 .35-.057 2.256 2.256 0 0 0 .385-.14 1.487 1.487 0 0 0 .245-.148Z" fill="rgba(8, 66, 183, 1)" fill-rule="evenodd" data-name="shape"/></svg>