<svg xmlns="http://www.w3.org/2000/svg" width="18.999" height="13" viewBox="1392 205 18.999 13"><path d="M1410.258 206.116a2.505 2.505 0 0 0-.99-.68c-.747-.3-1.81-.434-3.334-.436a26.944 26.944 0 0 0-.046 0h-8.778c-2.473 0-3.761.344-4.444 1.188a2.797 2.797 0 0 0-.548 1.31c-.116.652-.118 1.434-.118 2.359a1216.157 1216.157 0 0 0 0 .044v3.198c0 2.824.596 4.44 3.586 4.815a12.302 12.302 0 0 0 1.524.085h8.778a16.865 16.865 0 0 0 1.167-.036c1.385-.097 2.245-.391 2.844-.949a2.86 2.86 0 0 0 .728-1.125c.202-.54.316-1.213.356-2.063a15.647 15.647 0 0 0 .016-.727V209.9c0-1.53-.039-2.648-.494-3.438a2.236 2.236 0 0 0-.247-.347Zm-6.06 5.825-3.987 2.026a.635.635 0 0 1-.274.067.612.612 0 0 1-.01 0 .628.628 0 0 1-.317-.086.594.594 0 0 1-.296-.51v-4.037c0-.208.112-.402.295-.51a.627.627 0 0 1 .318-.087h.006a.626.626 0 0 1 .277.068l3.986 2.012c.203.103.33.306.33.528a.594.594 0 0 1-.329.53Z" fill="rgba(8, 66, 183, 1)" fill-rule="evenodd" data-name="shape"/></svg>